<svg id="Layer_2" xmlns="http://www.w3.org/2000/svg" viewBox="0 0 85 85"><style>.st1{fill:#fff}</style><path d="M3.7 3.7h77.7v77.7H3.7z" fill="#eaeaea"/><path id="XMLID_21_" class="st1" d="M70.1 23.1H59c-1.6 0-1.6 0-1.9 1.9-.3 1.9-.3 1.9 1.1 1.9h3.6l-2 11.7c-.4 2.3-.3 2.3 1.7 2.3 1.9 0 2 0 2.3-1.6l2.1-12.4h3.5c1.6 0 1.6 0 1.9-1.9.3-1.9.3-1.9-1.2-1.9z"/><path id="XMLID_20_" class="st1" d="M39.6 23.1c-1.9 0-2 0-2.3 1.6l-1.5 8.6c-.4 2.5-1.1 3.9-3.5 3.9s-3.2-1.4-2.8-3.7l1.4-8.2c.4-2.3.3-2.3-1.7-2.3s-2 0-2.3 1.6l-1.5 8.6c-.8 4.9 2.1 7.9 6.4 7.9 4.8 0 7.2-2.1 8-7.3l1.5-8.5c.4-2.2.3-2.2-1.7-2.2z"/><path id="XMLID_19_" class="st1" d="M23.1 23.1h-4.9c-1.6 0-1.6 0-1.9 1.9-.3 1.8-.3 1.9 1.1 1.9h2.9l-1.6 9.4c-.4 2.1-1.3 3.5-4.1 4.4-.7.2-.9.5-.9.8 0 .4.1.7.4 1.5.4 1.1.7 1.3 1.1 1.3.4 0 1.1-.2 1.4-.3 4-1.3 5.6-4.4 6.3-8.1l1.8-10.6c.4-2.2.4-2.2-1.6-2.2z"/><path id="XMLID_11_" class="st1" d="M48.6 37.1c1.6-.1 2.4-.8 2.4-1.5 0-.9-1.1-1.3-2.7-1.7-3-.9-5.6-2-5.6-5.1 0-3.7 3.1-5.8 6.9-5.8 1.6 0 3.5.1 4.7.2 1.1.1 1.3.5 1 2.1s-.7 1.8-1.6 1.7c-1.1-.1-2.6-.2-4.2-.2-2 0-2.6.7-2.6 1.4 0 .8.8 1.3 2.6 1.8 3.4 1 5.7 2.4 5.7 5.3 0 3.5-2.6 5.5-6.7 5.7-2.3.1-4.2-.1-5.9-.3-1.3-.2-1.4-.2-1-2.1.3-1.7.3-1.8 1.5-1.7 2.4.2 3.9.3 5.5.2z"/><path id="XMLID_23_" class="st1" d="M47.4 54.3l2.6-5.6c.2-.5.2-.5.5-.5s.3 0 .4.5l.8 5.6h-4.3zm7-7.8c-.4-2.2-.4-2.2-3.5-2.2-3 0-2.9 0-3.8 1.8l-6.7 13.8c-1 2-.8 2.1 1.7 2.1 1.9 0 1.9 0 2.7-1.8l1.1-2.4h6.4l.3 2.4c.3 1.8.3 1.8 2.3 1.8 2.2 0 2.4-.2 2-2.3l-2.5-13.2z"/><path id="XMLID_22_" class="st1" d="M39 48c1.6 0 1.6 0 1.9-1.9.3-1.9.3-1.9-1.1-1.9h-8c-2.8 0-2.8 0-3.2 2.8l-2 11.9C26 62 26.1 62 28.9 62h7.8c1.6 0 1.6 0 1.9-1.8.3-1.9.3-1.9-1.1-1.9h-6.7l.6-3.4H37c1.5 0 1.5 0 1.8-1.8.3-1.8.3-1.8-1.8-1.8h-5l.6-3.2L39 48z"/><path id="XMLID_10_" class="st1" d="M70.1 44.3H59c-1.6 0-1.6 0-1.9 1.9-.4 1.8-.4 1.8 1 1.8h3.6l-2 11.7c-.4 2.3-.3 2.3 1.7 2.3 1.9 0 2 0 2.3-1.6L65.9 48h3.5c1.6 0 1.6 0 1.9-1.9s.3-1.8-1.2-1.8z"/></svg>
