<svg width="74" height="26" viewBox="0 0 74 26" fill="none" xmlns="http://www.w3.org/2000/svg">
<path fill-rule="evenodd" clip-rule="evenodd" d="M15.7957 24.5599L11.5054 19.8838L11.037 20.1103L10.9331 19.8838L11.3316 19.6926L1.29562 8.74867C0.103921 7.45075 0.511712 6.06832 2.20548 5.66192L22.8246 0.705869C24.5164 0.298711 25.482 1.35093 24.9807 3.05375L18.8618 23.8251C18.359 25.5286 16.9861 25.8593 15.7957 24.5599V24.5599ZM10.8302 21.4198C10.6733 21.2594 10.6733 20.9991 10.8302 20.8404C10.9859 20.6789 11.239 20.6789 11.3981 20.8404C11.5515 20.9991 11.5515 21.2594 11.3981 21.4198C11.239 21.5785 10.9859 21.5785 10.8302 21.4198V21.4198ZM11.2694 21.2868C11.3568 21.2018 11.3568 21.0585 11.2694 20.9692C11.1823 20.8817 11.0426 20.8817 10.9586 20.9692C10.87 21.0585 10.87 21.2018 10.9586 21.2868C11.0426 21.3756 11.1823 21.3756 11.2694 21.2868V21.2868ZM1.23 5.7339L1.14637 5.07852L1.29296 5.05966L1.37634 5.71327L1.23 5.7339ZM3.42051 4.77544C3.34244 4.69773 3.34244 4.56947 3.42051 4.48874C3.4976 4.40978 3.62478 4.40978 3.70113 4.48874C3.77896 4.56947 3.77896 4.69773 3.70113 4.77544C3.62478 4.85491 3.4976 4.85491 3.42051 4.77544V4.77544ZM3.63911 4.55311H3.48464C3.4416 4.59729 3.4416 4.66833 3.48464 4.7105H3.63911C3.68141 4.66833 3.68141 4.59729 3.63911 4.55311V4.55311Z" fill="white"/>
<path fill-rule="evenodd" clip-rule="evenodd" d="M19.3079 22.6212C19.2277 22.5135 19.1957 22.3585 19.1869 22.1828L19.4366 22.3125L19.5486 22.0803L19.1781 21.8922C19.18 21.8246 19.1815 21.759 19.1815 21.6923C19.0435 21.6923 18.9058 21.6373 18.8001 21.5257C18.5868 21.3094 18.5868 20.953 18.8001 20.7344C18.8444 20.6887 18.8953 20.6526 18.9471 20.6256C18.8796 20.485 18.807 20.3509 18.7353 20.2179L18.9075 20.3603L19.0648 20.1553L18.4164 19.6242C18.3684 19.5303 18.3259 19.4334 18.2848 19.3326C18.1554 19.4205 17.979 19.4071 17.8667 19.2882C17.7366 19.1585 17.7366 18.9406 17.8667 18.8066C17.9269 18.7432 18.0086 18.7084 18.0891 18.7079C18.0781 18.6397 18.0641 18.5686 18.0551 18.4984C18.035 18.3484 18.0463 18.169 18.0614 17.9935L17.7496 18.1061L17.6997 17.9519L17.8667 18.0496L18.0739 17.6727L18.0913 17.6666C18.0923 17.6545 18.0937 17.6447 18.0937 17.6336L18.4071 17.0666L18.1874 16.9379L18.0614 17.1696C18.0301 17.0962 17.97 17.0015 17.8936 16.8947C17.9854 16.687 17.9482 16.4345 17.7855 16.2634C17.6544 16.1309 17.4773 16.0786 17.3113 16.1061C17.2719 16.0486 17.2352 15.9908 17.199 15.9337H17.2611V14.8036H17.0106V15.2196C16.9935 15.1245 16.9656 15.0303 16.9138 14.9346C16.688 15.1701 16.8003 16.1001 16.1516 16.6456C15.997 16.7753 16.0092 17.2289 15.9349 17.4031C15.8576 17.5856 15.3476 18.0155 15.2077 18.2598C15.0025 18.617 14.7077 19.112 14.3362 19.3998C14.0033 19.655 13.5221 20.3032 13.1146 20.696C12.9341 20.65 12.7372 20.6988 12.5958 20.8449C12.3857 21.0605 12.3857 21.4182 12.5958 21.6373C12.7465 21.792 12.9615 21.8367 13.1489 21.7736C13.3003 22.0737 13.4744 22.3481 13.5422 22.4549C13.5542 22.4753 13.9159 22.5157 13.9766 22.5382V22.7066C13.7041 22.7437 13.3262 22.8504 13.0801 22.6778C13.0682 22.6695 13.0554 22.6604 13.0432 22.6513C13.0464 22.6467 13.0476 22.6457 13.053 22.6432C13.1631 22.5299 13.1631 22.3438 13.053 22.2302C12.9429 22.1159 12.7622 22.1159 12.6506 22.2302C12.645 22.2365 12.6396 22.2426 12.6333 22.2512C12.4559 22.0508 12.2693 21.8077 12.1274 21.5636L12.0983 21.586L11.8889 21.2415L12.3625 21.0239L12.2898 20.852L11.7901 21.0794L11.3885 20.4251L11.646 20.259L11.9112 20.6887C11.9215 20.647 11.942 20.6087 11.9657 20.5728C11.9826 20.5488 12.0017 20.5254 12.0247 20.5026C12.0328 20.5337 12.0499 20.5594 12.0726 20.5829C12.1492 20.6619 12.2732 20.6619 12.3507 20.5829C12.4266 20.5026 12.4266 20.3747 12.3522 20.2972L12.3679 20.2886C12.2668 20.0791 12.2994 19.8143 12.4694 19.6388C12.5836 19.5189 12.7389 19.4674 12.8896 19.475C12.8896 19.5914 12.9297 19.707 13.0146 19.7918C13.1826 19.9642 13.4561 19.9642 13.6246 19.7918C13.7924 19.6169 13.7924 19.3359 13.6246 19.1612C13.541 19.0754 13.4282 19.0318 13.3074 19.0333L13.3318 18.9727L12.7017 18.5385L12.8434 18.3227L13.4272 18.7273C13.4311 18.7152 13.4385 18.7039 13.4426 18.689C13.5422 18.7866 13.7019 18.7829 13.8005 18.6799C13.9025 18.5756 13.9025 18.4062 13.8005 18.299C13.7538 18.2513 13.6931 18.2247 13.6317 18.2232C13.6762 18.1195 13.7261 18.0155 13.777 17.908L13.4744 18.1112L13.2934 17.8247L14.172 17.2385C14.2051 17.1906 14.2395 17.1429 14.2772 17.0946C14.2907 17.0734 14.3232 17.0482 14.3677 17.0174C14.3577 17.0113 14.3479 17.0015 14.3391 16.9924C14.1268 16.7733 14.1268 16.4156 14.3391 16.1973C14.5194 16.0085 14.8002 15.9832 15.0081 16.1162C15.0025 16.0584 14.9973 15.9948 14.9929 15.9322L15.0947 16.1602L15.2715 16.0743L14.9154 15.28L14.8968 15.2885L14.6189 14.7567L14.84 14.6348L15.0338 15.0073C15.0895 14.8026 15.1544 14.5891 15.216 14.3745C15.1544 14.3563 15.0947 14.3195 15.046 14.2685C14.8841 14.1009 14.8841 13.829 15.046 13.6601C15.1473 13.5564 15.2894 13.5168 15.421 13.5435C15.43 13.4827 15.4391 13.4254 15.4471 13.362C15.4178 13.3103 15.3977 13.2575 15.3821 13.205C15.4988 13.1924 15.614 13.1381 15.7008 13.0467C15.9156 12.8266 15.9156 12.4712 15.7008 12.2498C15.6499 12.1994 15.591 12.1597 15.5284 12.1312C15.5643 12.0519 15.6017 11.9707 15.637 11.8879C15.5604 11.7977 15.5129 11.6879 15.4988 11.5731C15.49 11.6104 15.4829 11.645 15.4748 11.6786C15.4352 11.8202 15.3549 11.9555 15.2627 12.0926C15.1416 12.1029 15.0259 12.1567 14.9332 12.2498C14.7769 12.4164 14.7351 12.6555 14.8131 12.8564C14.7899 12.9291 14.773 13.0033 14.7669 13.0826C14.7258 13.4913 14.8229 14.5898 14.353 14.5987C14.3528 14.4538 14.3012 14.3119 14.1938 14.2036C14.0776 14.0794 13.9174 14.0262 13.764 14.0423C13.777 13.9393 13.8252 13.828 13.8898 13.7197L13.5542 13.8588L13.4585 13.6215L13.9587 13.4125C13.9737 13.4456 13.9962 13.4776 14.0206 13.5052C14.1512 13.6374 14.3604 13.6374 14.4903 13.5052C14.6189 13.3719 14.6189 13.1553 14.4903 13.0225C14.4795 13.0114 14.4675 12.999 14.4558 12.9907C14.4714 12.964 14.4876 12.9369 14.4944 12.9145C14.5035 12.8827 14.4267 12.4932 14.4396 12.3536C14.4558 12.2036 14.4714 12.0459 14.4903 11.8879L14.2784 12.3157L14.0551 12.1963L14.3374 11.6281L14.9511 11.7346L14.9817 11.5466L14.4252 11.4507L14.5546 11.1904L14.57 11.2003C14.5825 11.0854 14.5908 10.9733 14.5962 10.8653C14.5367 10.8448 14.478 10.8118 14.4301 10.76C14.3031 10.629 14.2755 10.4331 14.3479 10.2741C14.095 10.2978 13.8389 10.2082 13.6479 10.0111C13.3042 9.65415 13.3042 9.07736 13.6479 8.72144C13.9257 8.43595 14.3391 8.3794 14.6688 8.55055C14.6586 8.39404 14.7094 8.23174 14.8259 8.10906C14.8851 8.05251 14.9543 8.00733 15.0259 7.97981C15.035 7.99647 15.048 8.01061 15.0624 8.02525C15.1923 8.15929 15.4026 8.15929 15.5301 8.02525C15.659 7.89475 15.659 7.67388 15.5301 7.5406C15.4178 7.42448 15.2449 7.4106 15.1142 7.49894L14.7628 6.98349L14.9672 6.83456L15.2539 7.25283C15.2666 7.22633 15.2757 7.20159 15.2874 7.1766C15.2928 7.18518 15.2987 7.19351 15.308 7.19957C15.3836 7.27883 15.5066 7.27883 15.5849 7.19957C15.6631 7.12233 15.6631 6.99233 15.5849 6.9113C15.5376 6.86309 15.4748 6.84415 15.4156 6.85324C15.2324 6.63515 15.2419 6.3022 15.4425 6.09571C15.5849 5.94804 15.7849 5.89983 15.9655 5.94628C15.9845 5.89428 16.0017 5.8443 16.0171 5.78851C16.0653 5.61156 16.0753 5.52321 16.0733 5.33768L15.667 5.79078L15.4829 5.61636L16.0017 5.03351C15.9787 4.97267 15.9486 4.90502 15.9192 4.83535C16.0092 4.84141 16.0997 4.80733 16.1675 4.73716C16.2986 4.60337 16.2986 4.3878 16.1675 4.25452C16.0383 4.122 15.8304 4.122 15.7008 4.25452C15.659 4.29718 15.6299 4.34716 15.6149 4.40143C15.5217 4.36786 15.4334 4.31107 15.3591 4.23559C15.0895 3.95414 15.0895 3.5028 15.3591 3.22236C15.5839 2.99265 15.9224 2.95302 16.1863 3.10599C16.2578 3.07242 16.336 3.04061 16.4251 3.01259C16.8673 2.86517 18.0751 3.32484 18.1634 3.51694C18.1774 3.54369 18.0331 4.12882 18.0262 4.27295C18.0196 4.53421 18.2909 4.39411 18.2735 4.89215C17.8888 4.91462 18.1634 5.33617 18.0015 5.48106C17.8601 5.60702 17.3372 5.51589 17.1317 5.56537C17.0608 5.58405 17.0234 5.71884 17.0234 5.81577C17.0187 6.43169 17.7726 7.06679 17.9475 8.00632C18.0331 8.47558 18.1003 8.77521 18.2187 9.23815C18.3139 9.61604 18.2488 10.1605 18.1615 10.6929C18.7307 10.9857 19.9441 11.3118 20.0931 11.4277C20.5292 11.7728 20.4507 12.269 19.8421 12.4482C19.8373 12.4505 19.7353 12.4482 19.7331 12.4482C19.7086 12.4293 19.6812 12.4134 19.655 12.3957C19.7558 12.2428 19.7401 12.033 19.609 11.899C19.4608 11.7457 19.2194 11.7457 19.0707 11.899C19.0403 11.928 19.0161 11.9659 18.9983 12.0042C18.943 11.9611 18.8909 11.9091 18.8444 11.85C18.8275 11.8285 18.807 11.8111 18.7852 11.7945L18.1943 11.8328L18.1862 11.6786L18.4655 11.6635C18.3166 11.6198 18.1541 11.5822 18.0284 11.5352C18.0155 11.638 18.0067 11.7346 18.0015 11.8202C17.6464 12.6737 18.6967 14.9556 18.9789 15.803C19.2495 16.6176 19.6477 18.4214 19.7125 19.2814C19.7957 20.3954 19.7375 21.6517 20.7193 22.1164C20.9296 22.2158 21.4565 22.153 21.6708 22.3696C21.6972 22.4933 21.6211 22.5902 21.5879 22.7066C21.4668 22.8711 19.4048 22.7601 19.3079 22.6212V22.6212ZM12.7211 22.3492C12.7284 22.3389 12.7348 22.3304 12.7443 22.3253C12.8019 22.2598 12.9017 22.2598 12.9619 22.3253C13.0242 22.385 13.0242 22.4873 12.9619 22.548C12.9563 22.5536 12.9492 22.5596 12.9433 22.5657C12.8754 22.5055 12.8019 22.4314 12.7211 22.3492V22.3492ZM18.0519 21.6252L17.4247 21.2978L17.4962 21.1488L18.1241 21.4793L18.0519 21.6252ZM12.7709 21.4606C12.6538 21.3392 12.6538 21.1433 12.7709 21.0234C12.813 20.981 12.8609 20.953 12.9157 20.9398C12.8835 21.0885 12.9466 21.3129 13.0432 21.5439C12.9488 21.5636 12.8433 21.5348 12.7709 21.4606V21.4606ZM19.1158 21.0234C19.0962 20.9636 19.0739 20.9088 19.0509 20.855C19.0203 20.8697 18.9945 20.8891 18.9712 20.9128C18.8544 21.0348 18.8544 21.2271 18.9712 21.3488C19.0291 21.4086 19.105 21.4386 19.1805 21.4396C19.1751 21.2849 19.1597 21.1403 19.1158 21.0234V21.0234ZM12.1328 20.5159C12.1115 20.4952 12.1015 20.4652 12.1015 20.4378C12.152 20.4012 12.2081 20.3698 12.2617 20.3405C12.2706 20.3448 12.2801 20.3509 12.286 20.3582C12.3313 20.4025 12.3313 20.4723 12.286 20.5159C12.247 20.5602 12.1777 20.5602 12.1328 20.5159V20.5159ZM12.837 20.0119C12.8896 19.9286 12.9402 19.8468 12.9882 19.759C12.8751 19.7009 12.7357 19.7211 12.6428 19.8163C12.5479 19.9155 12.5305 20.0662 12.5924 20.1843C12.7017 20.1313 12.7915 20.0791 12.837 20.0119V20.0119ZM13.1518 19.6499C13.1058 19.6017 13.0838 19.5406 13.1014 19.5303L13.2063 19.2814C13.3793 19.2334 13.4414 19.2564 13.4867 19.3041C13.5784 19.3993 13.5784 19.554 13.4867 19.6499C13.3939 19.7444 13.2438 19.7444 13.1518 19.6499V19.6499ZM18.2266 19.1852C18.1896 19.083 18.1558 18.9757 18.1244 18.8629C18.0693 18.8548 18.0132 18.8735 17.9713 18.9176C17.9009 18.9921 17.9009 19.109 17.9713 19.1832C18.0418 19.2541 18.1546 19.2564 18.2266 19.1852V19.1852ZM18.8525 19.2206L19.1238 18.7786L19.0242 18.7134L18.7537 19.1585L18.8525 19.2206ZM13.5151 18.5959C13.5063 18.5838 13.4972 18.5722 13.4916 18.5611C13.5193 18.4906 13.5477 18.4195 13.5773 18.3485C13.6259 18.3336 13.6805 18.3485 13.7182 18.3855C13.7734 18.4445 13.7734 18.5382 13.7182 18.5959C13.6631 18.6513 13.5727 18.6513 13.5151 18.5959V18.5959ZM18.7025 18.4984C18.876 18.3871 18.9307 18.15 18.8194 17.9696C18.7128 17.7876 18.4807 17.7333 18.3053 17.8446C18.1282 17.9562 18.0781 18.1962 18.1874 18.3775C18.2965 18.5567 18.5272 18.6122 18.7025 18.4984V18.4984ZM18.3303 18.2841C18.2682 18.1862 18.2965 18.0539 18.3936 17.9931C18.4917 17.9294 18.6184 17.96 18.6783 18.0612C18.7368 18.1594 18.7079 18.2914 18.6123 18.3512C18.5159 18.4133 18.3892 18.3825 18.3303 18.2841V18.2841ZM9.90494 17.7805C9.6349 17.5013 9.6349 17.0459 9.90494 16.765C10.1804 16.4858 10.6204 16.4858 10.8922 16.765C11.1629 17.0459 11.1629 17.5013 10.8922 17.7805C10.6204 18.0622 10.1804 18.0622 9.90494 17.7805V17.7805ZM17.6731 17.8775L17.6544 17.8206L17.7157 17.8015L17.6731 17.8775ZM14.5837 17.8678L14.6776 17.7744L14.2867 17.3548L14.1938 17.4477L14.5837 17.8678ZM17.4898 17.8385L16.791 17.6528L16.8316 17.4854L17.5326 17.6727L17.4898 17.8385ZM10.6718 17.5525C10.8188 17.3991 10.8188 17.1504 10.6718 16.9944C10.5197 16.8399 10.278 16.8399 10.1295 16.9944C9.97859 17.1504 9.97859 17.3991 10.1295 17.5525C10.278 17.7088 10.5197 17.7088 10.6718 17.5525V17.5525ZM15.0751 16.9503C15.1774 16.8435 15.1774 16.6749 15.0751 16.5694C15.0507 16.5436 15.0235 16.5247 14.9942 16.5113C14.999 16.504 15.0008 16.4974 15.0052 16.4911C14.9902 16.4492 14.9672 16.4108 14.9352 16.376C14.8188 16.2566 14.6272 16.2566 14.512 16.376C14.3954 16.4962 14.3954 16.6918 14.512 16.8109C14.5397 16.84 14.5727 16.8627 14.606 16.8781C14.6189 16.8718 14.6317 16.8627 14.6471 16.8528C14.66 16.8882 14.6818 16.9197 14.7065 16.9503C14.8087 17.0533 14.9736 17.0533 15.0751 16.9503V16.9503ZM14.79 16.8637C14.7679 16.843 14.7557 16.8166 14.7495 16.7871C14.8133 16.7465 14.8596 16.7087 14.8752 16.6747C14.8799 16.6619 14.8971 16.6399 14.9186 16.6127C14.9444 16.6188 14.9718 16.6314 14.9934 16.6528C15.0485 16.711 15.0485 16.8042 14.9934 16.8637C14.9385 16.9216 14.8463 16.9216 14.79 16.8637V16.8637ZM17.244 16.8205C17.1339 16.709 17.1339 16.5247 17.2369 16.421C17.4773 16.3518 17.5519 16.3808 17.6111 16.4419C17.6698 16.5022 17.6975 16.5797 17.6317 16.8253C17.5304 16.9334 17.3526 16.9334 17.244 16.8205V16.8205ZM17.5507 16.7273C17.6117 16.6644 17.6117 16.5661 17.5507 16.5021C17.4902 16.4419 17.3943 16.4419 17.335 16.5021C17.2728 16.5661 17.2728 16.6644 17.335 16.7273C17.3943 16.7918 17.4902 16.7918 17.5507 16.7273V16.7273ZM11.3024 16.2144L10.7716 15.2676L10.9827 15.1421L11.5113 16.0877L11.3024 16.2144ZM15.7309 16.1536L16.0017 15.7091L15.9014 15.6455L15.6299 16.09L15.7309 16.1536ZM12.4217 15.9882C12.2284 15.7931 12.2284 15.4675 12.4217 15.2688C12.6137 15.0724 12.9263 15.0724 13.1175 15.2688C13.31 15.4675 13.31 15.7931 13.1175 15.9882C12.9263 16.1881 12.6137 16.1881 12.4217 15.9882V15.9882ZM12.9615 15.8284C13.0667 15.7186 13.0667 15.5419 12.9615 15.4329C12.8546 15.3231 12.6832 15.3231 12.5782 15.4329C12.4733 15.5419 12.4733 15.7186 12.5782 15.8284C12.6832 15.937 12.8546 15.937 12.9615 15.8284V15.8284ZM15.667 14.9155C15.7446 14.8354 15.7446 14.707 15.667 14.6262C15.591 14.5469 15.4662 14.5469 15.3879 14.6262C15.3121 14.707 15.3121 14.8354 15.3879 14.9155C15.4662 14.9947 15.591 14.9947 15.667 14.9155V14.9155ZM15.4499 14.8484C15.4072 14.8069 15.4072 14.7353 15.4499 14.6915C15.4927 14.6496 15.5616 14.6496 15.6055 14.6915C15.6488 14.7353 15.6488 14.8069 15.6055 14.8484C15.5616 14.8915 15.4927 14.8915 15.4499 14.8484V14.8484ZM13.9239 14.4011C13.8791 14.3665 13.8433 14.3282 13.8176 14.291C13.8926 14.2942 13.9673 14.3222 14.021 14.3804C14.0597 14.4212 14.0862 14.4676 14.0987 14.5195C14.0465 14.491 13.9874 14.4509 13.9239 14.4011V14.4011ZM15.384 13.7339C15.3125 13.7167 15.2355 13.7399 15.1774 13.7977C15.0895 13.8919 15.0895 14.038 15.1774 14.1309C15.2064 14.1574 15.2355 14.1779 15.2698 14.1885C15.3125 14.0363 15.3539 13.8838 15.384 13.7339V13.7339ZM16.2167 13.9398C16.3258 13.8257 16.3258 13.6417 16.2167 13.5292C16.1063 13.4145 15.9278 13.4145 15.816 13.5292C15.7084 13.6417 15.7084 13.8257 15.816 13.9398C15.9278 14.0547 16.1063 14.0547 16.2167 13.9398V13.9398ZM15.907 13.8472C15.848 13.7852 15.848 13.6829 15.907 13.6214C15.9693 13.5594 16.0656 13.5594 16.1278 13.6214C16.1879 13.6829 16.1879 13.7852 16.1278 13.8472C16.0656 13.9102 15.9693 13.9102 15.907 13.8472V13.8472ZM14.1297 13.3954C14.1148 13.3802 14.104 13.3694 14.095 13.3517L14.198 13.3103C14.2576 13.2386 14.3168 13.1743 14.365 13.1122C14.3714 13.1167 14.379 13.1243 14.3839 13.1303C14.4558 13.2028 14.4558 13.3217 14.3839 13.3954C14.3144 13.4686 14.1982 13.4686 14.1297 13.3954V13.3954ZM13.1153 13.1604C12.9025 12.9413 12.9025 12.5848 13.1153 12.3657C13.3296 12.1499 13.6716 12.1499 13.8841 12.3657C14.095 12.5848 14.095 12.9413 13.8841 13.1604C13.6716 13.3785 13.3296 13.3785 13.1153 13.1604V13.1604ZM13.7124 12.9814C13.8281 12.8602 13.8281 12.6651 13.7124 12.5457C13.5965 12.425 13.4059 12.425 13.2873 12.5457C13.1711 12.6651 13.1711 12.8602 13.2873 12.9814C13.4059 13.1002 13.5965 13.1002 13.7124 12.9814V12.9814ZM15.4302 12.3642C15.4665 12.3793 15.501 12.4023 15.5304 12.4323C15.6466 12.5507 15.6466 12.7481 15.5304 12.867C15.475 12.9256 15.4028 12.9549 15.3302 12.9571C15.3121 12.7461 15.3591 12.5548 15.4302 12.3642V12.3642ZM9.6513 12.6595L9.10633 12.3016L9.18583 12.1739L9.7308 12.5316L9.6513 12.6595ZM19.1411 12.1067C19.1521 12.077 19.169 12.0474 19.192 12.0239C19.2734 11.9401 19.4062 11.9401 19.4877 12.0239C19.5611 12.1012 19.5687 12.2231 19.5058 12.3077C19.3801 12.239 19.2578 12.1799 19.1411 12.1067V12.1067ZM12.0247 12.1959L12.0151 12.0458L12.6565 12.0042L12.6645 12.1564L12.0247 12.1959ZM7.04236 12.0814C6.96605 12.0017 6.96605 11.8739 7.04236 11.7931C7.12039 11.7126 7.24367 11.7126 7.31974 11.7931C7.39973 11.8739 7.39973 12.0017 7.31974 12.0814C7.24367 12.1597 7.12039 12.1597 7.04236 12.0814V12.0814ZM16.483 12.025C16.5593 11.9462 16.5593 11.8182 16.483 11.7347C16.4052 11.6562 16.2795 11.6562 16.2042 11.7347C16.1254 11.8182 16.1254 11.9462 16.2042 12.025C16.2795 12.1068 16.4052 12.1068 16.483 12.025V12.025ZM7.25871 12.0175C7.30208 11.9704 7.30208 11.9018 7.25871 11.8572C7.21681 11.8139 7.14868 11.8139 7.10653 11.8572C7.06365 11.9018 7.06365 11.9704 7.10653 12.0175C7.14868 12.0593 7.21681 12.0593 7.25871 12.0175V12.0175ZM16.2668 11.9607C16.2237 11.9151 16.2237 11.8456 16.2668 11.8022C16.3087 11.7574 16.3781 11.7574 16.4183 11.8022C16.4612 11.8456 16.4612 11.9151 16.4183 11.9607C16.3781 12.0038 16.3087 12.0038 16.2668 11.9607V11.9607ZM15.8132 11.3305C15.75 11.3726 15.7265 11.4853 15.751 11.5893C15.7813 11.4953 15.8076 11.3976 15.8132 11.3305V11.3305ZM16.4527 11.3305L16.5486 11.1581L15.816 10.7315C15.7969 10.6156 15.7644 10.493 15.7167 10.3637C15.6499 10.6374 15.614 10.9448 15.5667 11.2353C15.591 11.1912 15.6206 11.1508 15.6546 11.1124C15.7089 11.0556 15.7722 11.0142 15.8431 10.9872V10.9771L16.4527 11.3305ZM10.6084 10.7499C10.3973 10.5306 10.3973 10.1742 10.6084 9.95455C10.8225 9.7357 11.1676 9.7357 11.3792 9.95455C11.5903 10.1742 11.5903 10.5306 11.3792 10.7499C11.1676 10.9673 10.8225 10.9673 10.6084 10.7499V10.7499ZM15.0643 10.7661C15.1947 10.6331 15.1947 10.4147 15.0643 10.2807C15.0007 10.2156 14.9154 10.1815 14.6759 10.2471L14.6818 10.2262C14.6351 10.234 14.5962 10.2557 14.5607 10.2898C14.5047 10.3499 14.4844 10.4296 14.5017 10.5069C14.4971 10.5998 14.5277 10.6949 14.5962 10.7661C14.7234 10.8979 14.9352 10.8979 15.0643 10.7661V10.7661ZM14.7018 10.6563C14.6316 10.582 14.6316 10.4657 14.7018 10.3904C14.7708 10.3167 14.8863 10.3167 14.9584 10.3904C15.0293 10.4657 15.0293 10.582 14.9584 10.6563C14.8863 10.73 14.7708 10.73 14.7018 10.6563V10.6563ZM11.2045 10.5697C11.3205 10.4516 11.3205 10.2527 11.2045 10.1353C11.0886 10.0139 10.8983 10.0139 10.7838 10.1353C10.6647 10.2527 10.6647 10.4516 10.7838 10.5697C10.8983 10.6899 11.0886 10.6899 11.2045 10.5697V10.5697ZM15.9427 10.2471C16.0895 10.0989 16.0895 9.85203 15.9427 9.70285C15.7981 9.55089 15.5609 9.55089 15.4168 9.70285C15.2683 9.85203 15.2683 10.0989 15.4168 10.2471C15.5609 10.3995 15.7981 10.3995 15.9427 10.2471V10.2471ZM15.5318 10.1237C15.4528 10.0419 15.4528 9.90835 15.5318 9.82606C15.6139 9.74251 15.7446 9.74251 15.8255 9.82606C15.9038 9.90835 15.9038 10.0419 15.8255 10.1237C15.7446 10.2082 15.6139 10.2082 15.5318 10.1237V10.1237ZM14.6157 9.71926C14.807 9.52539 14.807 9.20658 14.6157 9.01146C14.4266 8.81633 14.1202 8.81633 13.9311 9.01146C13.7403 9.20658 13.7403 9.52539 13.9311 9.71926C14.1202 9.91691 14.4266 9.91691 14.6157 9.71926V9.71926ZM7.18744 9.71879L6.45975 9.07965L6.60162 8.9085L7.32882 9.54689L7.18744 9.71879ZM16.4473 9.19749L16.5598 9.16467L16.4172 8.66209L16.3057 8.6934L16.4473 9.19749ZM12.7264 8.97387C12.5958 8.84084 12.5958 8.62855 12.7264 8.4988C12.8519 8.36653 13.0596 8.36653 13.1855 8.4988C13.3113 8.62855 13.3113 8.84084 13.1855 8.97387C13.0596 9.10488 12.8519 9.10488 12.7264 8.97387V8.97387ZM13.0816 8.86581C13.1518 8.79386 13.1518 8.67674 13.0816 8.60379C13.0119 8.5316 12.8979 8.5316 12.827 8.60379C12.7585 8.67674 12.7585 8.79386 12.827 8.86581C12.8979 8.93825 13.0119 8.93825 13.0816 8.86581V8.86581ZM15.142 8.20822C15.0898 8.21932 15.0413 8.24785 15.0009 8.2895C14.884 8.40965 14.884 8.60553 15.0009 8.72417C15.0423 8.76734 15.095 8.79636 15.1477 8.80924C15.1597 8.6285 15.1477 8.41697 15.142 8.20822V8.20822ZM16.5151 8.18353C16.6919 7.99875 16.6919 7.69887 16.5151 7.51738C16.3348 7.32907 16.0437 7.32907 15.8659 7.51738C15.6856 7.69887 15.6856 7.99875 15.8659 8.18353C16.0437 8.3683 16.3348 8.3683 16.5151 8.18353V8.18353ZM16.011 8.03358C15.9124 7.9316 15.9124 7.76652 16.011 7.66681C16.1088 7.56407 16.269 7.56407 16.3673 7.66681C16.4659 7.76652 16.4659 7.9316 16.3673 8.03358C16.269 8.13607 16.1088 8.13607 16.011 8.03358V8.03358ZM15.1683 7.91548C15.1543 7.90311 15.1455 7.88695 15.137 7.87231C15.1384 7.80567 15.1416 7.74105 15.1455 7.67845C15.1529 7.67088 15.1602 7.66179 15.1683 7.65094C15.2394 7.57773 15.3549 7.57773 15.4249 7.65094C15.4977 7.72414 15.4977 7.84152 15.4249 7.91548C15.3549 7.98868 15.2394 7.98868 15.1683 7.91548V7.91548ZM3.45311 7.78974C3.37582 7.71174 3.37582 7.58023 3.45311 7.49996C3.53163 7.41969 3.65638 7.41969 3.73416 7.49996C3.75837 7.52747 3.7755 7.55802 3.7843 7.59235L4.13482 7.64334L4.11402 7.77106L3.77647 7.71906C3.76767 7.74658 3.75275 7.76828 3.73416 7.78974C3.65638 7.8685 3.53163 7.8685 3.45311 7.78974V7.78974ZM3.67101 7.72377C3.67567 7.71747 3.6813 7.71142 3.68474 7.70361L3.58034 7.68774L3.59872 7.56302L3.67787 7.57386C3.67567 7.57159 3.67224 7.56907 3.67101 7.56605C3.63058 7.52246 3.55878 7.52246 3.51786 7.56605C3.47546 7.61064 3.47546 7.68018 3.51786 7.72377C3.55878 7.7661 3.63058 7.7661 3.67101 7.72377V7.72377ZM13.0772 7.56408L13.0236 7.35204L13.9147 7.09936L13.97 7.30862L13.0772 7.56408ZM8.88423 7.36967L8.883 6.83579H9.00062L9.00283 7.36967H8.88423ZM15.3704 7.13584C15.3505 7.11467 15.3434 7.09452 15.3385 7.0726C15.3618 7.02498 15.3836 6.98441 15.4027 6.95317C15.4427 6.93629 15.4902 6.94359 15.5221 6.97836C15.5672 7.02019 15.5672 7.08973 15.5221 7.13584C15.4789 7.17716 15.4108 7.17716 15.3704 7.13584V7.13584ZM6.0784 6.91309C5.99084 6.82474 5.94192 6.71443 5.92406 6.59781L5.35243 6.58443L5.35756 6.3464L5.94192 6.36003C5.96515 6.27168 6.01041 6.18813 6.0784 6.11997C6.28925 5.90188 6.63561 5.90188 6.84694 6.11997C7.05877 6.34034 7.05877 6.695 6.84694 6.91309C6.63561 7.13245 6.28925 7.13245 6.0784 6.91309V6.91309ZM6.67306 6.73688C6.78753 6.61571 6.78753 6.41933 6.67306 6.29993C6.55638 6.17851 6.36755 6.17851 6.25234 6.29993C6.23008 6.31836 6.21492 6.34183 6.2022 6.36556L6.36755 6.36935L6.36192 6.60713L6.17334 6.60158C6.18752 6.65156 6.21345 6.69624 6.25234 6.73688C6.36755 6.85325 6.55638 6.85325 6.67306 6.73688V6.73688ZM16.5982 6.67227L16.6383 6.43474L15.8074 6.28783C15.8255 6.25299 15.8431 6.22068 15.8612 6.18408C15.7813 6.17449 15.6993 6.19999 15.634 6.25577L15.6262 6.25527L15.6237 6.26511C15.6228 6.26763 15.6206 6.27167 15.6157 6.2742C15.5129 6.37895 15.5007 6.54404 15.5797 6.66369C15.614 6.61194 15.6431 6.56196 15.6756 6.51047L16.5982 6.67227ZM11.3364 6.52841C11.1965 6.38352 11.1965 6.15104 11.3364 6.00665C11.4751 5.86277 11.7021 5.86277 11.8412 6.00665C11.9807 6.15104 11.9807 6.38352 11.8412 6.52841C11.7021 6.67179 11.4751 6.67179 11.3364 6.52841V6.52841ZM11.7267 6.40897C11.8031 6.33198 11.8031 6.2035 11.7267 6.12373C11.6499 6.04371 11.5276 6.04371 11.4494 6.12373C11.3748 6.2035 11.3748 6.33198 11.4494 6.40897C11.5276 6.49025 11.6499 6.49025 11.7267 6.40897V6.40897ZM14.4475 5.56032C14.2371 5.33945 14.2371 4.98479 14.4475 4.76518C14.6632 4.54709 15.0081 4.54709 15.219 4.76518C15.43 4.98479 15.43 5.33945 15.219 5.56032C15.0081 5.77842 14.6632 5.77842 14.4475 5.56032V5.56032ZM15.046 5.37983C15.1602 5.25943 15.1602 5.06531 15.046 4.94415C14.9281 4.82324 14.7395 4.82324 14.6228 4.94415C14.5057 5.06531 14.5057 5.25943 14.6228 5.37983C14.7395 5.49999 14.9281 5.49999 15.046 5.37983V5.37983ZM16.9067 4.94263C16.9744 4.87196 16.9744 4.75609 16.9067 4.68668C16.8374 4.61398 16.7264 4.61398 16.6562 4.68668C16.5882 4.75609 16.5882 4.87196 16.6562 4.94263C16.7264 5.01331 16.8374 5.01331 16.9067 4.94263V4.94263ZM7.98862 4.95064L7.9325 4.8874L8.1925 4.63645L8.24886 4.69994L7.98862 4.95064ZM16.7133 4.88624C16.6745 4.84442 16.6745 4.78168 16.7133 4.74313C16.7495 4.70509 16.8135 4.70509 16.85 4.74313C16.8892 4.78168 16.8892 4.84442 16.85 4.88624C16.8135 4.92328 16.7495 4.92328 16.7133 4.88624V4.88624ZM15.8397 4.65564C15.8111 4.59102 15.7813 4.52464 15.7553 4.4585C15.7622 4.42341 15.7778 4.39035 15.8057 4.36409C15.8781 4.29114 15.9916 4.29114 16.0633 4.36409C16.1327 4.4373 16.1327 4.55467 16.0633 4.62939C16.0016 4.693 15.907 4.70133 15.8397 4.65564V4.65564ZM12.7915 4.19471L12.7526 4.00816L13.5429 3.83071L13.5818 4.01902L12.7915 4.19471ZM15.8397 3.33795C15.7446 3.33946 15.6499 3.37531 15.579 3.44977C15.4305 3.60426 15.4305 3.85264 15.579 4.00814C15.5966 4.0248 15.615 4.04095 15.6357 4.05534C15.591 3.79837 15.6262 3.54721 15.8397 3.33795V3.33795ZM16.8267 3.88185C16.9561 3.74983 16.9561 3.53249 16.8267 3.39845C16.6971 3.26618 16.4872 3.26618 16.3571 3.39845C16.2296 3.53249 16.2296 3.74983 16.3571 3.88185C16.4872 4.01664 16.6971 4.01664 16.8267 3.88185V3.88185ZM16.4647 3.77518C16.3935 3.70097 16.3935 3.57956 16.4647 3.50888C16.5351 3.43466 16.6501 3.43466 16.7222 3.50888C16.7944 3.57956 16.7944 3.70097 16.7222 3.77518C16.6501 3.84788 16.5351 3.84788 16.4647 3.77518V3.77518Z" fill="#15749D"/>
<path fill-rule="evenodd" clip-rule="evenodd" d="M36.6044 17.2469V8.66924H34.821V12.0368H30.8922V8.66924H29.1257V17.2469H30.8922V13.6471H34.821V17.2469H36.6044Z" fill="white"/>
<mask id="mask0" mask-type="alpha" maskUnits="userSpaceOnUse" x="0" y="0" width="74" height="26">
<path fill-rule="evenodd" clip-rule="evenodd" d="M0 26H74V0.192017H0V26Z" fill="white"/>
</mask>
<g mask="url(#mask0)">
<path fill-rule="evenodd" clip-rule="evenodd" d="M38.2366 17.247H40.0058V8.66931H38.2366V17.247Z" fill="white"/>
<path fill-rule="evenodd" clip-rule="evenodd" d="M44.9292 17.2469C45.5842 17.2464 46.18 17.1447 46.7204 16.9402C47.2575 16.7415 47.724 16.4528 48.1141 16.0759C48.5079 15.6998 48.8085 15.2497 49.0208 14.7247C49.2339 14.1999 49.342 13.6127 49.3476 12.966C49.342 12.3173 49.2339 11.7289 49.0208 11.2023C48.8085 10.675 48.5079 10.2249 48.1141 9.84528C47.724 9.46892 47.2575 9.17888 46.7204 8.97719C46.18 8.77248 45.5842 8.671 44.9292 8.66924H41.6508V17.2469H44.9292ZM44.9292 15.6404H43.4205V10.2759H44.9292C45.5023 10.2804 45.9802 10.4019 46.3662 10.6341C46.751 10.8696 47.044 11.1877 47.2406 11.593C47.4393 11.9972 47.5349 12.4538 47.5381 12.966C47.5349 13.331 47.4767 13.675 47.3624 13.9949C47.2455 14.3187 47.0736 14.6009 46.852 14.8511C46.6255 15.0942 46.3535 15.2878 46.0328 15.4266C45.709 15.566 45.3425 15.6356 44.9292 15.6404V15.6404Z" fill="white"/>
<path fill-rule="evenodd" clip-rule="evenodd" d="M56.483 17.2469V15.6405H52.3705V13.7006H56.3967V12.0911H52.3705V10.2759H56.483V8.66924H50.5991V17.2469H56.483Z" fill="white"/>
<path fill-rule="evenodd" clip-rule="evenodd" d="M59.2039 9.25148C60.0928 9.25148 60.0025 10.8998 60.3792 11.444C60.786 10.9463 61.2984 10.3399 61.9762 10.3399C62.8353 10.3399 62.7296 11.7394 63.4079 11.7394C64.4474 11.7394 65.0198 10.3399 66.1951 10.3399C67.7319 10.3399 67.9279 12.6413 67.9279 13.7141C66.4512 13.7141 67.0842 11.6927 65.9241 11.6927C64.7488 11.6927 64.5225 13.4188 63.3925 13.4188C63.2871 13.4188 63.0613 13.3721 63.016 13.3564L61.7052 11.9883C61.5093 12.3147 60.5901 13.8696 60.3792 14.1649C60.334 14.2273 60.1681 14.4138 60.1231 14.4295C60.1077 14.4295 60.0326 14.4449 59.9874 14.4449C59.2492 14.4449 58.782 10.0911 58.782 9.93556C58.782 9.62482 58.7971 9.25148 59.2039 9.25148" fill="white"/>
<path fill-rule="evenodd" clip-rule="evenodd" d="M71.3481 11.3973C71.6494 11.3973 72.4028 11.5372 72.4028 10.9619C72.4028 10.2932 71.2879 10.2622 70.896 10.2622H70.5494C70.218 10.2622 69.8865 10.371 69.7659 10.8221C70.1277 11.3973 70.7605 11.3973 71.3481 11.3973M71.3481 9.18914C72.3725 9.18914 74 9.81137 74 11.1174C74 12.8122 70.9714 12.3147 70.1427 12.3147C70.1427 13.31 70.4139 13.8386 71.6042 13.8386C72.222 13.8386 72.8399 13.5743 73.1865 12.999C73.2467 13.0454 73.4123 13.2322 73.4575 13.2789V13.4031C73.4575 14.3984 72.2822 14.9114 71.4686 14.9114C69.9017 14.9114 68.425 13.4031 68.425 11.7861C68.425 10.1688 69.8866 9.18914 71.3481 9.18914" fill="white"/>
</g>
</svg>
